<svg xmlns="http://www.w3.org/2000/svg" viewBox="0 0 154.56 29.5"><defs><style>.cls-1{fill:#010101;}.cls-2{fill:#62bb46;}</style></defs><title>DP-LOGO-COLOR</title><g id="Layer_2" data-name="Layer 2"><g id="Layer_1-2" data-name="Layer 1"><path class="cls-1" d="M97,23l.52-2.46h2.27L99.24,23ZM65.86,10.91l-1.8,8.57c-.51,2.4-1.78,3.54-4.3,3.54H48.91L52.29,7H62.78A3,3,0,0,1,65.86,10.91Zm-4-1.82H54.14L51.63,21h7.88c1.51,0,2.06-.58,2.38-2.06l1.6-7.65C63.78,9.88,63.14,9.09,61.89,9.09ZM67,23H79.63L80.07,21H69.67l1-5H79l.45-2.06H71.18l1-4.8H82.6L83,7H70.34Zm21.43,0h2.85l10.4-16H99L90.21,20.84h-.12L87.19,7H84.78Zm30.93-12.1-.71,3.31c-.5,2.4-1.78,3.54-4.29,3.54H106.2L105.1,23h-2.29L106.2,7h10A3,3,0,0,1,119.31,10.91Zm-4-1.83h-7.31l-1.4,6.63h7.43c1.51,0,2-.57,2.37-2.06l.51-2.4C117.25,9.88,116.61,9.08,115.36,9.08Zm21.52,1.83-.52,2.52c-.5,2.39-1.81,3.54-4.18,3.54L135.53,23h-2.8L129.44,17H124L122.67,23h-2.28l3.38-16h10A3,3,0,0,1,136.88,10.91Zm-3.95-1.82h-7.31l-1.23,5.82h7.42c1.51,0,2.06-.57,2.38-2.06l.34-1.59C134.83,9.88,134.19,9.09,132.93,9.09Zm21.55,1.71-1.87,8.78c-.49,2.33-1.73,3.44-4.17,3.44h-7.2a3,3,0,0,1-3-3.77l1.87-8.78C140.6,8.14,141.84,7,144.28,7h7.2A3,3,0,0,1,154.48,10.8ZM150.61,9h-6.08c-1.47,0-2,.55-2.31,2l-1.67,7.88c-.29,1.33.33,2.11,1.56,2.11h6.08c1.47,0,2-.55,2.31-2l1.67-7.88C152.46,9.81,151.83,9,150.61,9Z"/><path class="cls-2" d="M38.18,7.53a3.36,3.36,0,0,0-2.77-1.1H23.31L18.41,29.5h0l4.64-2.72.78-3.71H36.19s2.06-9.57,2.68-12.77A3.37,3.37,0,0,0,38.18,7.53Zm-3.69,4.25L33,18.91H24.76l1.75-8.31h7a1,1,0,0,1,.79.36A1,1,0,0,1,34.49,11.78ZM.75,22a3.36,3.36,0,0,0,2.77,1.1h12.1L20.52,0h0L15.88,2.72l-.79,3.71H2.75S.69,16,.06,19.2A3.37,3.37,0,0,0,.75,22Zm3.69-4.25,1.5-7.13h8.23L12.42,18.9h-7a1,1,0,0,1-.79-.36A1,1,0,0,1,4.44,17.72Z"/></g></g></svg>