<?xml version="1.0" encoding="UTF-8"?>
<svg xmlns="http://www.w3.org/2000/svg" xmlns:xlink="http://www.w3.org/1999/xlink" width="300px" height="57px" viewBox="0 0 294 57" version="1.1">
<g id="surface1">
<path style=" stroke:none;fill-rule:nonzero;fill:rgb(0.392157%,0.392157%,0.392157%);fill-opacity:1;" d="M 184.511719 44.21875 L 185.5 39.53125 L 189.816406 39.53125 L 188.773438 44.21875 Z M 125.277344 21.183594 L 121.851562 37.511719 C 120.882812 42.085938 118.46875 44.257812 113.675781 44.257812 L 93.035156 44.257812 L 99.464844 13.734375 L 119.417969 13.734375 C 121.3125 13.589844 123.152344 14.402344 124.328125 15.894531 C 125.503906 17.390625 125.859375 19.371094 125.277344 21.183594 Z M 117.667969 17.714844 L 102.984375 17.714844 L 98.210938 40.410156 L 113.199219 40.410156 C 116.070312 40.410156 117.117188 39.304688 117.726562 36.484375 L 120.769531 21.90625 C 121.320312 19.21875 120.101562 17.714844 117.726562 17.714844 Z M 127.445312 44.21875 L 151.46875 44.21875 L 152.308594 40.410156 L 132.523438 40.410156 L 134.425781 30.882812 L 150.273438 30.882812 L 151.128906 26.957031 L 135.398438 26.957031 L 137.300781 17.8125 L 157.121094 17.8125 L 157.878906 13.734375 L 133.800781 13.734375 Z M 168.210938 44.21875 L 173.628906 44.21875 L 193.414062 13.734375 L 188.316406 13.734375 L 171.59375 40.105469 L 171.367188 40.105469 L 165.851562 13.734375 L 161.265625 13.734375 Z M 227.042969 21.164062 L 225.691406 27.472656 C 224.742188 32.042969 222.308594 34.214844 217.53125 34.214844 L 202.011719 34.214844 L 199.917969 44.21875 L 195.5625 44.21875 L 202.011719 13.734375 L 221.03125 13.734375 C 222.9375 13.570312 224.792969 14.371094 225.984375 15.871094 C 227.171875 17.367188 227.535156 19.363281 226.949219 21.183594 Z M 219.433594 17.675781 L 205.53125 17.675781 L 202.867188 30.308594 L 217 30.308594 C 219.871094 30.308594 220.804688 29.222656 221.507812 26.386719 L 222.476562 21.8125 C 223.03125 19.21875 221.8125 17.695312 219.433594 17.695312 Z M 260.371094 21.164062 L 259.378906 25.964844 C 258.429688 30.519531 255.9375 32.710938 251.429688 32.710938 L 257.800781 44.21875 L 252.476562 44.21875 L 246.21875 32.789062 L 235.871094 32.789062 L 233.339844 44.21875 L 229.003906 44.21875 L 235.433594 13.734375 L 254.453125 13.734375 C 256.355469 13.570312 258.214844 14.371094 259.40625 15.871094 C 260.59375 17.367188 260.957031 19.363281 260.371094 21.183594 Z M 252.855469 17.695312 L 238.949219 17.695312 L 236.613281 28.785156 L 250.726562 28.785156 C 253.597656 28.785156 254.644531 27.699219 255.253906 24.859375 L 255.898438 21.832031 C 256.46875 19.21875 255.253906 17.714844 252.855469 17.714844 Z M 293.847656 20.953125 L 290.289062 37.683594 C 289.359375 42.125 287 44.238281 282.359375 44.238281 L 268.664062 44.238281 C 266.859375 44.300781 265.128906 43.5 264.003906 42.085938 C 262.882812 40.667969 262.492188 38.804688 262.957031 37.054688 L 266.511719 20.324219 C 267.445312 15.90625 269.804688 13.734375 274.445312 13.734375 L 288.140625 13.734375 C 289.960938 13.667969 291.699219 14.472656 292.828125 15.902344 C 293.957031 17.335938 294.335938 19.21875 293.847656 20.972656 Z M 286.488281 17.542969 L 274.921875 17.542969 C 272.125 17.542969 271.117188 18.59375 270.527344 21.355469 L 267.351562 36.371094 C 266.800781 38.902344 267.976562 40.390625 270.316406 40.390625 L 281.882812 40.390625 C 284.679688 40.390625 285.6875 39.339844 286.277344 36.578125 L 289.453125 21.5625 C 290.003906 19.085938 288.808594 17.542969 286.488281 17.542969 Z M 286.488281 17.542969 "/>
<path style=" stroke:none;fill-rule:nonzero;fill:rgb(38.431373%,73.333333%,27.45098%);fill-opacity:1;" d="M 72.625 14.742188 C 71.289062 13.257812 69.34375 12.484375 67.355469 12.648438 L 44.339844 12.648438 L 35.019531 56.605469 L 43.84375 51.421875 L 45.328125 44.351562 L 68.839844 44.351562 C 68.839844 44.351562 72.757812 26.117188 73.9375 20.019531 C 74.300781 18.152344 73.820312 16.21875 72.625 14.742188 Z M 65.605469 22.839844 L 62.773438 36.425781 L 47.097656 36.425781 L 50.425781 20.59375 L 63.742188 20.59375 C 64.320312 20.582031 64.875 20.832031 65.246094 21.277344 C 65.589844 21.71875 65.722656 22.292969 65.605469 22.839844 Z M 1.425781 42.3125 C 2.761719 43.796875 4.710938 44.574219 6.695312 44.410156 L 29.710938 44.410156 L 39.03125 0.394531 L 30.207031 5.578125 L 28.703125 12.648438 L 5.230469 12.648438 C 5.230469 12.648438 1.3125 30.882812 0.113281 36.980469 C -0.269531 38.863281 0.214844 40.824219 1.425781 42.3125 Z M 8.445312 34.214844 L 11.300781 20.628906 L 26.953125 20.628906 L 23.625 36.40625 L 10.308594 36.40625 C 9.730469 36.417969 9.175781 36.167969 8.808594 35.722656 C 8.464844 35.28125 8.332031 34.707031 8.445312 34.160156 Z M 8.445312 34.214844 "/>
</g>
</svg>
